<svg width="43" height="19" viewBox="0 0 43 19" fill="none" xmlns="http://www.w3.org/2000/svg">
<path fill-rule="evenodd" clip-rule="evenodd" d="M10.7104 9.50003C10.7104 9.34256 10.8515 9.19154 11.1025 9.08019C11.3536 8.96884 11.6941 8.90628 12.0492 8.90628H27.5606L21.8118 6.3579C21.5604 6.24641 21.4191 6.0952 21.4191 5.93753C21.4191 5.77986 21.5604 5.62864 21.8118 5.51715C22.0631 5.40566 22.4041 5.34303 22.7596 5.34303C23.1152 5.34303 23.4561 5.40566 23.7075 5.51715L31.7403 9.07966C31.865 9.13481 31.9639 9.20033 32.0314 9.27247C32.0989 9.3446 32.1336 9.42194 32.1336 9.50003C32.1336 9.57813 32.0989 9.65546 32.0314 9.7276C31.9639 9.79973 31.865 9.86526 31.7403 9.92041L23.7075 13.4829C23.4561 13.5944 23.1152 13.657 22.7596 13.657C22.4041 13.657 22.0631 13.5944 21.8118 13.4829C21.5604 13.3714 21.4191 13.2202 21.4191 13.0625C21.4191 12.9049 21.5604 12.7537 21.8118 12.6422L27.5606 10.0938H12.0492C11.6941 10.0938 11.3536 10.0312 11.1025 9.91988C10.8515 9.80853 10.7104 9.65751 10.7104 9.50003Z" fill="black"/>
</svg>
