<svg width="43" height="19" viewBox="0 0 43 19" fill="none" xmlns="http://www.w3.org/2000/svg">
<path fill-rule="evenodd" clip-rule="evenodd" d="M3.73151 9.32194C3.73151 9.16446 3.87256 9.01344 4.12363 8.90209C4.37471 8.79074 4.71524 8.72819 5.07031 8.72819H20.5817L14.8329 6.17981C14.5815 6.06832 14.4402 5.9171 14.4402 5.75943C14.4402 5.60176 14.5815 5.45055 14.8329 5.33906C15.0843 5.22757 15.4252 5.16493 15.7807 5.16493C16.1363 5.16493 16.4772 5.22757 16.7286 5.33906L24.7614 8.90156C24.8861 8.95672 24.985 9.02224 25.0525 9.09437C25.12 9.16651 25.1547 9.24384 25.1547 9.32194C25.1547 9.40004 25.12 9.47737 25.0525 9.5495C24.985 9.62164 24.8861 9.68716 24.7614 9.74231L16.7286 13.3048C16.4772 13.4163 16.1363 13.4789 15.7807 13.4789C15.4252 13.4789 15.0843 13.4163 14.8329 13.3048C14.5815 13.1933 14.4402 13.0421 14.4402 12.8844C14.4402 12.7268 14.5815 12.5756 14.8329 12.4641L20.5817 9.91569H5.07031C4.71524 9.91569 4.37471 9.85313 4.12363 9.74178C3.87256 9.63043 3.73151 9.47941 3.73151 9.32194Z" fill="black"/>
</svg>
