<svg width="51" height="30" viewBox="0 0 51 30" fill="none" xmlns="http://www.w3.org/2000/svg">
<path d="M29.8479 24.375C29.8479 25.1209 29.3514 25.8363 28.4676 26.3637C27.5837 26.8912 26.385 27.1875 25.1351 27.1875C23.8852 27.1875 22.6864 26.8912 21.8026 26.3637C20.9188 25.8363 20.4222 25.1209 20.4222 24.375C20.4222 23.6291 20.9188 22.9137 21.8026 22.3863C22.6864 21.8588 23.8852 21.5625 25.1351 21.5625C26.385 21.5625 27.5837 21.8588 28.4676 22.3863C29.3514 22.9137 29.8479 23.6291 29.8479 24.375ZM29.8479 15C29.8479 15.7459 29.3514 16.4613 28.4676 16.9887C27.5837 17.5162 26.385 17.8125 25.1351 17.8125C23.8852 17.8125 22.6864 17.5162 21.8026 16.9887C20.9188 16.4613 20.4222 15.7459 20.4222 15C20.4222 14.2541 20.9188 13.5387 21.8026 13.0113C22.6864 12.4838 23.8852 12.1875 25.1351 12.1875C26.385 12.1875 27.5837 12.4838 28.4676 13.0113C29.3514 13.5387 29.8479 14.2541 29.8479 15ZM29.8479 5.625C29.8479 6.37092 29.3514 7.08629 28.4676 7.61374C27.5837 8.14118 26.385 8.4375 25.1351 8.4375C23.8852 8.4375 22.6864 8.14118 21.8026 7.61374C20.9188 7.08629 20.4222 6.37092 20.4222 5.625C20.4222 4.87908 20.9188 4.16371 21.8026 3.63626C22.6864 3.10882 23.8852 2.8125 25.1351 2.8125C26.385 2.8125 27.5837 3.10882 28.4676 3.63626C29.3514 4.16371 29.8479 4.87908 29.8479 5.625Z" fill="black"/>
</svg>
