<svg width="101" height="74" viewBox="0 0 101 74" fill="none" xmlns="http://www.w3.org/2000/svg">
<path fill-rule="evenodd" clip-rule="evenodd" d="M78.9062 53.1875L94.6875 57.8125V53.1875L78.9062 47.4062V41.625C78.9062 41.0117 78.5737 40.4235 77.9818 39.9898C77.3899 39.5561 76.5871 39.3125 75.75 39.3125C74.9129 39.3125 74.1101 39.5561 73.5182 39.9898C72.9263 40.4235 72.5938 41.0117 72.5938 41.625V47.4062L56.8125 53.1875V57.8125L72.5938 53.1875V61.2812L66.2812 64.75V67.0625L75.75 64.75L85.2188 67.0625V64.75L78.9062 61.2812V53.1875Z" fill="#C44848"/>
<path fill-rule="evenodd" clip-rule="evenodd" d="M82.0625 9.25H69.4375V4.625H63.125V9.25H37.875V4.625H31.5625V9.25H18.9375C17.2633 9.25 15.6577 9.73728 14.4739 10.6046C13.2901 11.472 12.625 12.6484 12.625 13.875V60.125C12.625 61.3516 13.2901 62.528 14.4739 63.3954C15.6577 64.2627 17.2633 64.75 18.9375 64.75H50.5V60.125H18.9375V13.875H31.5625V18.5H37.875V13.875H63.125V18.5H69.4375V13.875H82.0625V30.0625H88.375V13.875C88.375 12.6484 87.7099 11.472 86.5261 10.6046C85.3423 9.73728 83.7367 9.25 82.0625 9.25Z" fill="#C44848"/>
</svg>
