<svg width="49" height="41" viewBox="0 0 49 41" fill="none" xmlns="http://www.w3.org/2000/svg">
<path d="M5.10419 32.4584V11.9584H43.8959V32.4584C43.8959 34.3375 42.0584 35.875 39.8125 35.875H9.18752C6.94169 35.875 5.10419 34.3375 5.10419 32.4584Z" fill="#CFD8DC"/>
<path d="M43.8959 8.54167V13.6667H5.10419V8.54167C5.10419 6.6625 6.94169 5.125 9.18752 5.125H39.8125C42.0584 5.125 43.8959 6.6625 43.8959 8.54167Z" fill="#F44336"/>
<path d="M33.6875 11.1041C35.3789 11.1041 36.75 9.95686 36.75 8.54163C36.75 7.1264 35.3789 5.97913 33.6875 5.97913C31.9961 5.97913 30.625 7.1264 30.625 8.54163C30.625 9.95686 31.9961 11.1041 33.6875 11.1041Z" fill="#B71C1C"/>
<path d="M15.3125 11.1041C17.0039 11.1041 18.375 9.95686 18.375 8.54163C18.375 7.1264 17.0039 5.97913 15.3125 5.97913C13.6211 5.97913 12.25 7.1264 12.25 8.54163C12.25 9.95686 13.6211 11.1041 15.3125 11.1041Z" fill="#B71C1C"/>
<path d="M33.6875 2.5625C32.5646 2.5625 31.6458 3.33125 31.6458 4.27083V8.54167C31.6458 9.48125 32.5646 10.25 33.6875 10.25C34.8104 10.25 35.7291 9.48125 35.7291 8.54167V4.27083C35.7291 3.33125 34.8104 2.5625 33.6875 2.5625ZM15.3125 2.5625C14.1896 2.5625 13.2708 3.33125 13.2708 4.27083V8.54167C13.2708 9.48125 14.1896 10.25 15.3125 10.25C16.4354 10.25 17.3541 9.48125 17.3541 8.54167V4.27083C17.3541 3.33125 16.4354 2.5625 15.3125 2.5625Z" fill="#B0BEC5"/>
<path d="M13.2708 17.0834H17.3541V20.5H13.2708V17.0834ZM19.3958 17.0834H23.4791V20.5H19.3958V17.0834ZM25.5208 17.0834H29.6041V20.5H25.5208V17.0834ZM31.6458 17.0834H35.7291V20.5H31.6458V17.0834ZM13.2708 22.2084H17.3541V25.625H13.2708V22.2084ZM19.3958 22.2084H23.4791V25.625H19.3958V22.2084ZM25.5208 22.2084H29.6041V25.625H25.5208V22.2084ZM31.6458 22.2084H35.7291V25.625H31.6458V22.2084ZM13.2708 27.3334H17.3541V30.75H13.2708V27.3334ZM19.3958 27.3334H23.4791V30.75H19.3958V27.3334ZM25.5208 27.3334H29.6041V30.75H25.5208V27.3334ZM31.6458 27.3334H35.7291V30.75H31.6458V27.3334Z" fill="#90A4AE"/>
</svg>
