<svg width="49" height="41" viewBox="0 0 49 41" fill="none" xmlns="http://www.w3.org/2000/svg">
<path d="M41.7725 18.9231C39.5981 18.2923 35.9844 17.5669 31.8806 16.81L20.1819 3.43769C19.5426 2.71052 18.765 2.12653 17.8972 1.722L14.2406 0C13.965 0 13.7813 5.96046e-08 13.9344 0.346923C14.0875 0.693846 18.375 9.46154 20.9475 14.8231C15.3125 13.9085 10.2287 13.1515 7.99312 12.8362C7.61408 12.7656 7.25318 12.6156 6.93285 12.3953C6.61253 12.175 6.33963 11.8892 6.13113 11.5557L3.92 8.16846C3.56982 7.63799 3.05962 7.24116 2.46837 7.03939L0 6.30769L1.86813 16.5892C2.07331 17.6615 2.842 18.5099 3.84037 18.7938C7.90125 19.9954 18.5894 23.0231 26.8888 24.8523C45.2637 28.8892 47.7137 28.8892 48.6937 27.7223C49.6737 26.5554 46.6419 20.2162 41.7725 18.9231ZM0 37.8462H49V41H0V37.8462Z" fill="black"/>
</svg>
