<svg width="49" height="41" viewBox="0 0 49 41" fill="none" xmlns="http://www.w3.org/2000/svg">
<path d="M38.4963 0.897329C36.5058 1.88794 33.4129 3.80084 29.9218 6.02118L13.2016 3.4251C12.2633 3.27415 11.3069 3.34869 10.3965 3.64371L6.7677 4.79146C6.46147 4.79146 6.46147 5.13305 6.7677 5.26968L20.7318 12.1015C16.0159 15.2441 11.8205 18.1135 9.98313 19.4115C9.65529 19.6412 9.286 19.7873 8.90166 19.8393C8.51732 19.8912 8.12743 19.8478 7.75989 19.7121L4.10349 18.4209C3.52287 18.1899 2.88817 18.1923 2.30898 18.4277L0 19.4798L7.71702 26.6532C8.10496 27.0162 8.57683 27.2498 9.07844 27.3272C9.58004 27.4045 10.091 27.3225 10.5527 27.0905C14.2397 25.2527 23.9473 20.2655 31.1743 16.0639C47.2208 6.56772 48.9969 4.92809 48.9969 3.4251C48.9969 1.06812 42.8754 -1.35717 38.4963 0.897329ZM0.00306231 37.5841H49V41H0.00306231V37.5841Z" fill="black"/>
</svg>
