<svg width="22" height="9" viewBox="0 0 22 9" fill="none" xmlns="http://www.w3.org/2000/svg">
<path fill-rule="evenodd" clip-rule="evenodd" d="M0 4.26893C0 4.10721 0.14485 3.95213 0.402684 3.83778C0.660518 3.72343 1.01022 3.65919 1.37485 3.65919H17.3038L11.4002 1.0422C11.1421 0.927708 10.997 0.772424 10.997 0.610507C10.997 0.448591 11.1421 0.293306 11.4002 0.178813C11.6584 0.0643212 12.0085 0 12.3736 0C12.7387 0 13.0889 0.0643212 13.347 0.178813L21.5961 3.83723C21.7241 3.89387 21.8257 3.96116 21.895 4.03523C21.9643 4.10931 22 4.18873 22 4.26893C22 4.34913 21.9643 4.42854 21.895 4.50262C21.8257 4.5767 21.7241 4.64398 21.5961 4.70062L13.347 8.35904C13.0889 8.47353 12.7387 8.53785 12.3736 8.53785C12.0085 8.53785 11.6584 8.47353 11.4002 8.35904C11.1421 8.24455 10.997 8.08926 10.997 7.92735C10.997 7.76543 11.1421 7.61015 11.4002 7.49565L17.3038 4.87866H1.37485C1.01022 4.87866 0.660518 4.81442 0.402684 4.70008C0.14485 4.58573 0 4.43064 0 4.26893Z" fill="black"/>
</svg>
